<mxfile host="app.diagrams.net" modified="2023-04-26T01:28:46.546Z" agent="Mozilla/5.0 (Windows NT 10.0; Win64; x64) AppleWebKit/537.36 (KHTML, like Gecko) Chrome/112.0.0.0 Safari/537.36" etag="pP2erbtFUE52LftTg-Cf" version="21.2.2" type="device">
  <diagram name="페이지-1" id="dpbryxFczbDCAhcBoAax">
    <mxGraphModel dx="3088" dy="1908" grid="1" gridSize="10" guides="1" tooltips="1" connect="1" arrows="1" fold="1" page="1" pageScale="1" pageWidth="827" pageHeight="1169" math="0" shadow="0">
      <root>
        <mxCell id="0" />
        <mxCell id="1" parent="0" />
        <mxCell id="IZ6g-CRAh4mPd1Ij5pes-1" value="" style="rounded=0;whiteSpace=wrap;html=1;movable=0;resizable=0;rotatable=0;deletable=0;editable=0;locked=1;connectable=0;" parent="1" vertex="1">
          <mxGeometry x="-690" y="-944.3210574030035" width="830" height="644.3210574030036" as="geometry" />
        </mxCell>
        <mxCell id="IZ6g-CRAh4mPd1Ij5pes-2" style="rounded=0;orthogonalLoop=1;jettySize=auto;html=1;exitX=0.5;exitY=0.5;exitDx=0;exitDy=0;exitPerimeter=0;entryX=1;entryY=0.5;entryDx=0;entryDy=0;fontSize=17;" parent="1" source="IZ6g-CRAh4mPd1Ij5pes-6" target="IZ6g-CRAh4mPd1Ij5pes-24" edge="1">
          <mxGeometry relative="1" as="geometry" />
        </mxCell>
        <mxCell id="IZ6g-CRAh4mPd1Ij5pes-3" value="" style="rounded=0;orthogonalLoop=1;jettySize=auto;html=1;entryX=1;entryY=0.5;entryDx=0;entryDy=0;fontSize=17;" parent="1" source="IZ6g-CRAh4mPd1Ij5pes-6" target="IZ6g-CRAh4mPd1Ij5pes-29" edge="1">
          <mxGeometry relative="1" as="geometry">
            <mxPoint x="90" y="-990" as="targetPoint" />
          </mxGeometry>
        </mxCell>
        <mxCell id="IZ6g-CRAh4mPd1Ij5pes-4" value="" style="rounded=0;orthogonalLoop=1;jettySize=auto;html=1;entryX=1;entryY=0.5;entryDx=0;entryDy=0;fontSize=17;" parent="1" source="IZ6g-CRAh4mPd1Ij5pes-6" target="IZ6g-CRAh4mPd1Ij5pes-49" edge="1">
          <mxGeometry relative="1" as="geometry">
            <mxPoint x="65" y="-400" as="targetPoint" />
          </mxGeometry>
        </mxCell>
        <mxCell id="IZ6g-CRAh4mPd1Ij5pes-5" value="" style="rounded=0;orthogonalLoop=1;jettySize=auto;html=1;entryX=1;entryY=0.5;entryDx=0;entryDy=0;fontSize=17;" parent="1" source="IZ6g-CRAh4mPd1Ij5pes-6" target="IZ6g-CRAh4mPd1Ij5pes-54" edge="1">
          <mxGeometry relative="1" as="geometry">
            <mxPoint x="65" y="-400" as="targetPoint" />
          </mxGeometry>
        </mxCell>
        <mxCell id="IZ6g-CRAh4mPd1Ij5pes-6" value="관리자" style="shape=umlActor;verticalLabelPosition=bottom;verticalAlign=top;html=1;outlineConnect=0;fontSize=17;" parent="1" vertex="1">
          <mxGeometry x="310" y="-730" width="30" height="60" as="geometry" />
        </mxCell>
        <mxCell id="IZ6g-CRAh4mPd1Ij5pes-7" style="rounded=0;orthogonalLoop=1;jettySize=auto;html=1;exitX=0.5;exitY=0.5;exitDx=0;exitDy=0;exitPerimeter=0;entryX=0.5;entryY=1;entryDx=0;entryDy=0;fontSize=17;" parent="1" source="IZ6g-CRAh4mPd1Ij5pes-9" target="IZ6g-CRAh4mPd1Ij5pes-14" edge="1">
          <mxGeometry relative="1" as="geometry" />
        </mxCell>
        <mxCell id="IZ6g-CRAh4mPd1Ij5pes-8" value="" style="edgeStyle=orthogonalEdgeStyle;rounded=0;orthogonalLoop=1;jettySize=auto;html=1;entryX=0;entryY=0.5;entryDx=0;entryDy=0;fontSize=17;" parent="1" source="IZ6g-CRAh4mPd1Ij5pes-9" target="IZ6g-CRAh4mPd1Ij5pes-26" edge="1">
          <mxGeometry relative="1" as="geometry">
            <Array as="points">
              <mxPoint x="-660" y="-350" />
              <mxPoint x="-660" y="-350" />
            </Array>
          </mxGeometry>
        </mxCell>
        <mxCell id="IZ6g-CRAh4mPd1Ij5pes-9" value="비회원" style="shape=umlActor;verticalLabelPosition=bottom;verticalAlign=top;html=1;outlineConnect=0;fontSize=17;" parent="1" vertex="1">
          <mxGeometry x="-750" y="-410" width="30" height="60" as="geometry" />
        </mxCell>
        <mxCell id="IZ6g-CRAh4mPd1Ij5pes-10" style="edgeStyle=orthogonalEdgeStyle;rounded=0;orthogonalLoop=1;jettySize=auto;html=1;exitX=0.5;exitY=0.5;exitDx=0;exitDy=0;exitPerimeter=0;entryX=0;entryY=0.5;entryDx=0;entryDy=0;fontSize=17;" parent="1" source="IZ6g-CRAh4mPd1Ij5pes-12" target="IZ6g-CRAh4mPd1Ij5pes-16" edge="1">
          <mxGeometry relative="1" as="geometry">
            <Array as="points">
              <mxPoint x="-835" y="-530" />
            </Array>
          </mxGeometry>
        </mxCell>
        <mxCell id="IZ6g-CRAh4mPd1Ij5pes-11" value="" style="rounded=0;orthogonalLoop=1;jettySize=auto;html=1;entryX=0;entryY=0.5;entryDx=0;entryDy=0;fontSize=17;" parent="1" source="IZ6g-CRAh4mPd1Ij5pes-12" target="IZ6g-CRAh4mPd1Ij5pes-28" edge="1">
          <mxGeometry relative="1" as="geometry">
            <mxPoint x="-630" y="-865" as="targetPoint" />
          </mxGeometry>
        </mxCell>
        <mxCell id="IZ6g-CRAh4mPd1Ij5pes-12" value="회원" style="shape=umlActor;verticalLabelPosition=bottom;verticalAlign=top;html=1;outlineConnect=0;fontSize=17;" parent="1" vertex="1">
          <mxGeometry x="-850" y="-550" width="30" height="60" as="geometry" />
        </mxCell>
        <mxCell id="IZ6g-CRAh4mPd1Ij5pes-13" style="rounded=0;orthogonalLoop=1;jettySize=auto;html=1;exitX=0;exitY=0.5;exitDx=0;exitDy=0;entryX=0.5;entryY=0.5;entryDx=0;entryDy=0;entryPerimeter=0;fontSize=17;" parent="1" source="IZ6g-CRAh4mPd1Ij5pes-14" target="IZ6g-CRAh4mPd1Ij5pes-12" edge="1">
          <mxGeometry relative="1" as="geometry">
            <mxPoint x="-750" y="-380" as="targetPoint" />
          </mxGeometry>
        </mxCell>
        <mxCell id="IZ6g-CRAh4mPd1Ij5pes-14" value="회원가입" style="ellipse;whiteSpace=wrap;html=1;fontSize=17;" parent="1" vertex="1">
          <mxGeometry x="-650" y="-470" width="120" height="40" as="geometry" />
        </mxCell>
        <mxCell id="IZ6g-CRAh4mPd1Ij5pes-15" value="" style="edgeStyle=orthogonalEdgeStyle;rounded=0;orthogonalLoop=1;jettySize=auto;html=1;fontSize=17;" parent="1" source="IZ6g-CRAh4mPd1Ij5pes-16" target="IZ6g-CRAh4mPd1Ij5pes-18" edge="1">
          <mxGeometry relative="1" as="geometry" />
        </mxCell>
        <mxCell id="IZ6g-CRAh4mPd1Ij5pes-16" value="로그인" style="ellipse;whiteSpace=wrap;html=1;fontSize=17;" parent="1" vertex="1">
          <mxGeometry x="-650" y="-550" width="120" height="40" as="geometry" />
        </mxCell>
        <mxCell id="IZ6g-CRAh4mPd1Ij5pes-17" value="" style="edgeStyle=orthogonalEdgeStyle;rounded=0;orthogonalLoop=1;jettySize=auto;html=1;fontSize=17;" parent="1" source="IZ6g-CRAh4mPd1Ij5pes-18" target="IZ6g-CRAh4mPd1Ij5pes-21" edge="1">
          <mxGeometry relative="1" as="geometry" />
        </mxCell>
        <mxCell id="IZ6g-CRAh4mPd1Ij5pes-18" value="상품 검색" style="ellipse;whiteSpace=wrap;html=1;fontSize=17;" parent="1" vertex="1">
          <mxGeometry x="-490" y="-550" width="120" height="40" as="geometry" />
        </mxCell>
        <mxCell id="IZ6g-CRAh4mPd1Ij5pes-19" value="" style="edgeStyle=orthogonalEdgeStyle;rounded=0;orthogonalLoop=1;jettySize=auto;html=1;fontSize=17;" parent="1" source="IZ6g-CRAh4mPd1Ij5pes-21" target="IZ6g-CRAh4mPd1Ij5pes-23" edge="1">
          <mxGeometry relative="1" as="geometry" />
        </mxCell>
        <mxCell id="IZ6g-CRAh4mPd1Ij5pes-20" value="" style="edgeStyle=orthogonalEdgeStyle;rounded=0;orthogonalLoop=1;jettySize=auto;html=1;fontSize=17;" parent="1" source="IZ6g-CRAh4mPd1Ij5pes-21" target="IZ6g-CRAh4mPd1Ij5pes-31" edge="1">
          <mxGeometry relative="1" as="geometry" />
        </mxCell>
        <mxCell id="IZ6g-CRAh4mPd1Ij5pes-21" value="상품선택" style="ellipse;whiteSpace=wrap;html=1;fontSize=17;" parent="1" vertex="1">
          <mxGeometry x="-490" y="-620" width="120" height="40" as="geometry" />
        </mxCell>
        <mxCell id="IZ6g-CRAh4mPd1Ij5pes-22" value="&amp;lt;&amp;lt;포함&amp;gt;&amp;gt;" style="edgeStyle=orthogonalEdgeStyle;rounded=0;orthogonalLoop=1;jettySize=auto;dashed=1;entryX=0.5;entryY=1;entryDx=0;entryDy=0;html=1;labelPosition=center;verticalLabelPosition=middle;align=center;verticalAlign=middle;horizontal=0;fontSize=12;" parent="1" source="IZ6g-CRAh4mPd1Ij5pes-23" target="IZ6g-CRAh4mPd1Ij5pes-33" edge="1">
          <mxGeometry x="0.205" y="15" relative="1" as="geometry">
            <mxPoint x="-430" y="-780" as="targetPoint" />
            <mxPoint as="offset" />
            <Array as="points">
              <mxPoint x="-445" y="-720" />
              <mxPoint x="-445" y="-720" />
            </Array>
          </mxGeometry>
        </mxCell>
        <mxCell id="IZ6g-CRAh4mPd1Ij5pes-23" value="상품 구매" style="ellipse;whiteSpace=wrap;html=1;fontSize=17;" parent="1" vertex="1">
          <mxGeometry x="-490" y="-700" width="120" height="40" as="geometry" />
        </mxCell>
        <mxCell id="IZ6g-CRAh4mPd1Ij5pes-24" value="상품 관리" style="ellipse;whiteSpace=wrap;html=1;fontColor=#FF0000;fontStyle=1;fontSize=17;" parent="1" vertex="1">
          <mxGeometry x="-160" y="-620" width="120" height="40" as="geometry" />
        </mxCell>
        <mxCell id="IZ6g-CRAh4mPd1Ij5pes-25" value="" style="rounded=0;orthogonalLoop=1;jettySize=auto;html=1;fontSize=17;" parent="1" source="IZ6g-CRAh4mPd1Ij5pes-26" target="IZ6g-CRAh4mPd1Ij5pes-68" edge="1">
          <mxGeometry relative="1" as="geometry" />
        </mxCell>
        <mxCell id="IZ6g-CRAh4mPd1Ij5pes-26" value="상품목록으로&lt;br style=&quot;font-size: 14px;&quot;&gt;이동한다" style="ellipse;whiteSpace=wrap;html=1;verticalAlign=top;strokeColor=default;fontSize=14;" parent="1" vertex="1">
          <mxGeometry x="-650" y="-370" width="120" height="40" as="geometry" />
        </mxCell>
        <mxCell id="IZ6g-CRAh4mPd1Ij5pes-27" value="" style="edgeStyle=orthogonalEdgeStyle;rounded=0;orthogonalLoop=1;jettySize=auto;html=1;fontSize=17;" parent="1" source="IZ6g-CRAh4mPd1Ij5pes-28" target="IZ6g-CRAh4mPd1Ij5pes-74" edge="1">
          <mxGeometry relative="1" as="geometry" />
        </mxCell>
        <mxCell id="IZ6g-CRAh4mPd1Ij5pes-28" value="상품 구매결정" style="ellipse;whiteSpace=wrap;html=1;fontSize=17;" parent="1" vertex="1">
          <mxGeometry x="-670" y="-920" width="120" height="40" as="geometry" />
        </mxCell>
        <mxCell id="IZ6g-CRAh4mPd1Ij5pes-29" value="이용후기관리" style="ellipse;whiteSpace=wrap;html=1;fontColor=#FF0000;fontStyle=1;fontSize=17;" parent="1" vertex="1">
          <mxGeometry x="-150" y="-920" width="120" height="40" as="geometry" />
        </mxCell>
        <mxCell id="IZ6g-CRAh4mPd1Ij5pes-30" value="" style="rounded=0;orthogonalLoop=1;jettySize=auto;html=1;entryX=0;entryY=0.5;entryDx=0;entryDy=0;fontSize=17;" parent="1" source="IZ6g-CRAh4mPd1Ij5pes-31" target="IZ6g-CRAh4mPd1Ij5pes-23" edge="1">
          <mxGeometry relative="1" as="geometry">
            <mxPoint x="-550" y="-930" as="targetPoint" />
          </mxGeometry>
        </mxCell>
        <mxCell id="IZ6g-CRAh4mPd1Ij5pes-31" value="장바구니" style="ellipse;whiteSpace=wrap;html=1;fontSize=17;" parent="1" vertex="1">
          <mxGeometry x="-650" y="-620" width="120" height="40" as="geometry" />
        </mxCell>
        <mxCell id="IZ6g-CRAh4mPd1Ij5pes-32" value="" style="edgeStyle=orthogonalEdgeStyle;rounded=0;orthogonalLoop=1;jettySize=auto;html=1;entryX=0;entryY=0.5;entryDx=0;entryDy=0;exitX=0.5;exitY=0.5;exitDx=0;exitDy=0;exitPerimeter=0;fontSize=17;" parent="1" source="IZ6g-CRAh4mPd1Ij5pes-70" target="IZ6g-CRAh4mPd1Ij5pes-33" edge="1">
          <mxGeometry relative="1" as="geometry">
            <mxPoint x="-580" y="-800" as="targetPoint" />
            <Array as="points" />
          </mxGeometry>
        </mxCell>
        <mxCell id="IZ6g-CRAh4mPd1Ij5pes-33" value="사용자 인증" style="ellipse;whiteSpace=wrap;html=1;movable=1;resizable=1;rotatable=1;deletable=1;editable=1;locked=0;connectable=1;fontColor=#FF0000;fontStyle=1;fontSize=17;" parent="1" vertex="1">
          <mxGeometry x="-505" y="-840" width="120" height="40" as="geometry" />
        </mxCell>
        <mxCell id="IZ6g-CRAh4mPd1Ij5pes-34" value="&amp;lt;&amp;lt;포함&amp;gt;&amp;gt;" style="rounded=0;orthogonalLoop=1;jettySize=auto;html=1;dashed=1;fontSize=13;" parent="1" source="IZ6g-CRAh4mPd1Ij5pes-36" target="IZ6g-CRAh4mPd1Ij5pes-33" edge="1">
          <mxGeometry x="0.0025" y="-15" relative="1" as="geometry">
            <mxPoint as="offset" />
          </mxGeometry>
        </mxCell>
        <mxCell id="IZ6g-CRAh4mPd1Ij5pes-35" value="" style="rounded=0;orthogonalLoop=1;jettySize=auto;html=1;dashed=1;exitX=1;exitY=0.5;exitDx=0;exitDy=0;fontSize=17;" parent="1" source="IZ6g-CRAh4mPd1Ij5pes-36" target="IZ6g-CRAh4mPd1Ij5pes-41" edge="1">
          <mxGeometry relative="1" as="geometry" />
        </mxCell>
        <mxCell id="IZ6g-CRAh4mPd1Ij5pes-36" value="온라인결제" style="ellipse;whiteSpace=wrap;html=1;movable=1;resizable=1;rotatable=1;deletable=1;editable=1;locked=0;connectable=1;fontSize=17;" parent="1" vertex="1">
          <mxGeometry x="-310" y="-870" width="120" height="40" as="geometry" />
        </mxCell>
        <mxCell id="IZ6g-CRAh4mPd1Ij5pes-37" value="&amp;lt;&amp;lt;포함&amp;gt;&amp;gt;" style="rounded=0;orthogonalLoop=1;jettySize=auto;html=1;dashed=1;fontSize=13;" parent="1" source="IZ6g-CRAh4mPd1Ij5pes-38" target="IZ6g-CRAh4mPd1Ij5pes-33" edge="1">
          <mxGeometry x="-0.1602" y="-11" relative="1" as="geometry">
            <mxPoint as="offset" />
          </mxGeometry>
        </mxCell>
        <mxCell id="IZ6g-CRAh4mPd1Ij5pes-38" value="계좌이체" style="ellipse;whiteSpace=wrap;html=1;movable=1;resizable=1;rotatable=1;deletable=1;editable=1;locked=0;connectable=1;fontSize=17;" parent="1" vertex="1">
          <mxGeometry x="-310" y="-820" width="120" height="40" as="geometry" />
        </mxCell>
        <mxCell id="IZ6g-CRAh4mPd1Ij5pes-39" value="" style="edgeStyle=orthogonalEdgeStyle;rounded=0;orthogonalLoop=1;jettySize=auto;html=1;fontSize=17;" parent="1" source="IZ6g-CRAh4mPd1Ij5pes-41" target="IZ6g-CRAh4mPd1Ij5pes-44" edge="1">
          <mxGeometry relative="1" as="geometry" />
        </mxCell>
        <mxCell id="IZ6g-CRAh4mPd1Ij5pes-40" value="" style="rounded=0;orthogonalLoop=1;jettySize=auto;html=1;exitX=1;exitY=0.5;exitDx=0;exitDy=0;entryX=0;entryY=0;entryDx=0;entryDy=0;fontSize=17;" parent="1" source="IZ6g-CRAh4mPd1Ij5pes-41" target="IZ6g-CRAh4mPd1Ij5pes-71" edge="1">
          <mxGeometry relative="1" as="geometry" />
        </mxCell>
        <mxCell id="IZ6g-CRAh4mPd1Ij5pes-41" value="결제 관리" style="ellipse;whiteSpace=wrap;html=1;movable=1;resizable=1;rotatable=1;deletable=1;editable=1;locked=0;connectable=1;fontColor=#FF0000;fontStyle=1;fontSize=17;" parent="1" vertex="1">
          <mxGeometry x="-160" y="-820" width="120" height="40" as="geometry" />
        </mxCell>
        <mxCell id="IZ6g-CRAh4mPd1Ij5pes-42" value="" style="endArrow=classic;html=1;rounded=0;entryX=0;entryY=0.5;entryDx=0;entryDy=0;exitX=1;exitY=0.5;exitDx=0;exitDy=0;dashed=1;fontSize=17;" parent="1" source="IZ6g-CRAh4mPd1Ij5pes-38" target="IZ6g-CRAh4mPd1Ij5pes-41" edge="1">
          <mxGeometry width="50" height="50" relative="1" as="geometry">
            <mxPoint x="-440" y="-680" as="sourcePoint" />
            <mxPoint x="-390" y="-730" as="targetPoint" />
          </mxGeometry>
        </mxCell>
        <mxCell id="IZ6g-CRAh4mPd1Ij5pes-43" value="&amp;lt;&amp;lt;포함&amp;gt;&amp;gt;" style="edgeStyle=orthogonalEdgeStyle;rounded=0;orthogonalLoop=1;jettySize=auto;html=1;dashed=1;horizontal=0;fontSize=12;" parent="1" source="IZ6g-CRAh4mPd1Ij5pes-44" target="IZ6g-CRAh4mPd1Ij5pes-24" edge="1">
          <mxGeometry y="-10" relative="1" as="geometry">
            <mxPoint as="offset" />
          </mxGeometry>
        </mxCell>
        <mxCell id="IZ6g-CRAh4mPd1Ij5pes-44" value="재고를 갱신한다." style="ellipse;whiteSpace=wrap;html=1;fontSize=15;" parent="1" vertex="1">
          <mxGeometry x="-160" y="-750" width="120" height="40" as="geometry" />
        </mxCell>
        <mxCell id="IZ6g-CRAh4mPd1Ij5pes-45" value="" style="rounded=0;orthogonalLoop=1;jettySize=auto;html=1;dashed=1;fontSize=17;" parent="1" source="IZ6g-CRAh4mPd1Ij5pes-46" target="IZ6g-CRAh4mPd1Ij5pes-24" edge="1">
          <mxGeometry relative="1" as="geometry" />
        </mxCell>
        <mxCell id="IZ6g-CRAh4mPd1Ij5pes-46" value="상품 등록" style="ellipse;whiteSpace=wrap;html=1;fontSize=17;" parent="1" vertex="1">
          <mxGeometry x="-95" y="-550" width="120" height="40" as="geometry" />
        </mxCell>
        <mxCell id="IZ6g-CRAh4mPd1Ij5pes-47" value="" style="rounded=0;orthogonalLoop=1;jettySize=auto;html=1;dashed=1;fontSize=17;" parent="1" source="IZ6g-CRAh4mPd1Ij5pes-48" target="IZ6g-CRAh4mPd1Ij5pes-24" edge="1">
          <mxGeometry relative="1" as="geometry" />
        </mxCell>
        <mxCell id="IZ6g-CRAh4mPd1Ij5pes-48" value="상품정보 수정" style="ellipse;whiteSpace=wrap;html=1;fontSize=17;" parent="1" vertex="1">
          <mxGeometry x="-230" y="-550" width="120" height="40" as="geometry" />
        </mxCell>
        <mxCell id="IZ6g-CRAh4mPd1Ij5pes-49" value="주문관리" style="ellipse;whiteSpace=wrap;html=1;fontColor=#FF0000;fontStyle=1;fontSize=17;" parent="1" vertex="1">
          <mxGeometry y="-720" width="120" height="40" as="geometry" />
        </mxCell>
        <mxCell id="IZ6g-CRAh4mPd1Ij5pes-50" value="" style="edgeStyle=orthogonalEdgeStyle;rounded=0;orthogonalLoop=1;jettySize=auto;html=1;fontSize=17;" parent="1" source="IZ6g-CRAh4mPd1Ij5pes-71" target="IZ6g-CRAh4mPd1Ij5pes-49" edge="1">
          <mxGeometry relative="1" as="geometry" />
        </mxCell>
        <mxCell id="IZ6g-CRAh4mPd1Ij5pes-51" value="" style="rounded=0;orthogonalLoop=1;jettySize=auto;html=1;entryX=1;entryY=0.5;entryDx=0;entryDy=0;fontSize=17;" parent="1" source="IZ6g-CRAh4mPd1Ij5pes-54" target="IZ6g-CRAh4mPd1Ij5pes-73" edge="1">
          <mxGeometry relative="1" as="geometry" />
        </mxCell>
        <mxCell id="IZ6g-CRAh4mPd1Ij5pes-52" value="" style="rounded=0;orthogonalLoop=1;jettySize=auto;html=1;entryX=1;entryY=0.5;entryDx=0;entryDy=0;fontSize=17;" parent="1" source="IZ6g-CRAh4mPd1Ij5pes-54" target="IZ6g-CRAh4mPd1Ij5pes-55" edge="1">
          <mxGeometry relative="1" as="geometry" />
        </mxCell>
        <mxCell id="IZ6g-CRAh4mPd1Ij5pes-53" value="" style="rounded=0;orthogonalLoop=1;jettySize=auto;html=1;entryX=1;entryY=0.5;entryDx=0;entryDy=0;fontSize=17;" parent="1" source="IZ6g-CRAh4mPd1Ij5pes-54" target="IZ6g-CRAh4mPd1Ij5pes-72" edge="1">
          <mxGeometry relative="1" as="geometry">
            <mxPoint x="-35" y="-280" as="targetPoint" />
          </mxGeometry>
        </mxCell>
        <mxCell id="IZ6g-CRAh4mPd1Ij5pes-54" value="회원관리" style="ellipse;whiteSpace=wrap;html=1;fontColor=#FF0000;fontStyle=1;fontSize=17;" parent="1" vertex="1">
          <mxGeometry x="-11" y="-420" width="120" height="40" as="geometry" />
        </mxCell>
        <mxCell id="IZ6g-CRAh4mPd1Ij5pes-55" value="정보수정" style="ellipse;whiteSpace=wrap;html=1;fontColor=#000000;fontStyle=0;fontSize=17;" parent="1" vertex="1">
          <mxGeometry x="-280" y="-420" width="120" height="40" as="geometry" />
        </mxCell>
        <mxCell id="IZ6g-CRAh4mPd1Ij5pes-56" value="&amp;lt;&amp;lt;포함&amp;gt;&amp;gt;" style="rounded=0;orthogonalLoop=1;jettySize=auto;html=1;entryX=1;entryY=0.5;entryDx=0;entryDy=0;dashed=1;horizontal=0;fontSize=12;" parent="1" source="IZ6g-CRAh4mPd1Ij5pes-72" target="IZ6g-CRAh4mPd1Ij5pes-33" edge="1">
          <mxGeometry x="-0.5842" y="20" relative="1" as="geometry">
            <mxPoint x="-420" y="-350" as="targetPoint" />
            <mxPoint as="offset" />
          </mxGeometry>
        </mxCell>
        <mxCell id="IZ6g-CRAh4mPd1Ij5pes-57" value="" style="group;fontSize=17;" parent="1" vertex="1" connectable="0">
          <mxGeometry x="-960" y="-940" width="80" height="410" as="geometry" />
        </mxCell>
        <mxCell id="IZ6g-CRAh4mPd1Ij5pes-58" value="사용자" style="shape=umlActor;verticalLabelPosition=bottom;verticalAlign=top;html=1;outlineConnect=0;fontSize=17;" parent="IZ6g-CRAh4mPd1Ij5pes-57" vertex="1">
          <mxGeometry x="20" width="30" height="60" as="geometry" />
        </mxCell>
        <mxCell id="IZ6g-CRAh4mPd1Ij5pes-59" value="이동" style="endArrow=classic;html=1;rounded=0;fontSize=17;" parent="IZ6g-CRAh4mPd1Ij5pes-57" edge="1">
          <mxGeometry x="0.0034" y="-20" width="50" height="50" relative="1" as="geometry">
            <mxPoint y="229.47000000000003" as="sourcePoint" />
            <mxPoint x="80" y="230" as="targetPoint" />
            <mxPoint as="offset" />
          </mxGeometry>
        </mxCell>
        <mxCell id="IZ6g-CRAh4mPd1Ij5pes-60" value="시스템" style="rounded=0;whiteSpace=wrap;html=1;fontSize=17;" parent="IZ6g-CRAh4mPd1Ij5pes-57" vertex="1">
          <mxGeometry y="100" width="80" height="40" as="geometry" />
        </mxCell>
        <mxCell id="IZ6g-CRAh4mPd1Ij5pes-61" value="활동" style="ellipse;whiteSpace=wrap;html=1;fontSize=17;" parent="IZ6g-CRAh4mPd1Ij5pes-57" vertex="1">
          <mxGeometry y="160" width="80" height="40" as="geometry" />
        </mxCell>
        <mxCell id="IZ6g-CRAh4mPd1Ij5pes-62" value="포함 또는 확장" style="endArrow=classic;html=1;rounded=0;dashed=1;fontSize=17;" parent="IZ6g-CRAh4mPd1Ij5pes-57" edge="1">
          <mxGeometry x="0.0034" y="-20" width="50" height="50" relative="1" as="geometry">
            <mxPoint y="280" as="sourcePoint" />
            <mxPoint x="80" y="280.53" as="targetPoint" />
            <mxPoint as="offset" />
          </mxGeometry>
        </mxCell>
        <mxCell id="IZ6g-CRAh4mPd1Ij5pes-63" value="반환" style="endArrow=classic;html=1;rounded=0;endFill=0;fontSize=17;" parent="IZ6g-CRAh4mPd1Ij5pes-57" edge="1">
          <mxGeometry x="0.0034" y="-20" width="50" height="50" relative="1" as="geometry">
            <mxPoint y="328.95000000000005" as="sourcePoint" />
            <mxPoint x="80" y="329.48" as="targetPoint" />
            <mxPoint as="offset" />
          </mxGeometry>
        </mxCell>
        <mxCell id="IZ6g-CRAh4mPd1Ij5pes-64" value="그룹" style="ellipse;whiteSpace=wrap;html=1;fontSize=17;fontStyle=1;fontColor=#ef0606;" parent="IZ6g-CRAh4mPd1Ij5pes-57" vertex="1">
          <mxGeometry y="370" width="80" height="40" as="geometry" />
        </mxCell>
        <mxCell id="IZ6g-CRAh4mPd1Ij5pes-65" value="&amp;lt;&amp;lt;포함&amp;gt;&amp;gt;" style="endArrow=classic;html=1;rounded=0;entryX=1;entryY=0.5;entryDx=0;entryDy=0;exitX=0;exitY=0;exitDx=0;exitDy=0;dashed=1;horizontal=0;fontSize=12;" parent="1" source="IZ6g-CRAh4mPd1Ij5pes-73" target="IZ6g-CRAh4mPd1Ij5pes-33" edge="1">
          <mxGeometry x="-0.3642" y="17" width="50" height="50" relative="1" as="geometry">
            <mxPoint x="-220" y="-490" as="sourcePoint" />
            <mxPoint x="-170" y="-540" as="targetPoint" />
            <mxPoint x="-1" as="offset" />
          </mxGeometry>
        </mxCell>
        <mxCell id="IZ6g-CRAh4mPd1Ij5pes-66" value="&amp;lt;&amp;lt;포함&amp;gt;&amp;gt;" style="endArrow=classic;html=1;rounded=0;entryX=1;entryY=0.5;entryDx=0;entryDy=0;exitX=0;exitY=0;exitDx=0;exitDy=0;dashed=1;horizontal=0;fontSize=12;" parent="1" source="IZ6g-CRAh4mPd1Ij5pes-55" target="IZ6g-CRAh4mPd1Ij5pes-33" edge="1">
          <mxGeometry x="-0.4119" y="12" width="50" height="50" relative="1" as="geometry">
            <mxPoint x="-220" y="-490" as="sourcePoint" />
            <mxPoint x="-170" y="-540" as="targetPoint" />
            <mxPoint as="offset" />
          </mxGeometry>
        </mxCell>
        <mxCell id="IZ6g-CRAh4mPd1Ij5pes-67" value="" style="edgeStyle=orthogonalEdgeStyle;rounded=0;orthogonalLoop=1;jettySize=auto;html=1;fontSize=17;" parent="1" source="IZ6g-CRAh4mPd1Ij5pes-68" target="IZ6g-CRAh4mPd1Ij5pes-14" edge="1">
          <mxGeometry relative="1" as="geometry" />
        </mxCell>
        <mxCell id="IZ6g-CRAh4mPd1Ij5pes-68" value="상품 검색" style="ellipse;whiteSpace=wrap;html=1;fontSize=17;" parent="1" vertex="1">
          <mxGeometry x="-501" y="-470" width="120" height="40" as="geometry" />
        </mxCell>
        <mxCell id="IZ6g-CRAh4mPd1Ij5pes-69" value="유즈 케이스 다이어그램&lt;br style=&quot;font-size: 17px;&quot;&gt;" style="text;html=1;strokeColor=none;fillColor=none;align=left;verticalAlign=middle;whiteSpace=wrap;rounded=0;fontSize=17;fontStyle=1;movable=1;resizable=1;rotatable=1;deletable=1;editable=1;locked=0;connectable=1;" parent="1" vertex="1">
          <mxGeometry x="-690" y="-981.11" width="390" height="36.79" as="geometry" />
        </mxCell>
        <mxCell id="IZ6g-CRAh4mPd1Ij5pes-70" value="인증회사" style="shape=umlActor;verticalLabelPosition=bottom;verticalAlign=top;html=1;outlineConnect=0;fontSize=17;" parent="1" vertex="1">
          <mxGeometry x="-585" y="-850" width="30" height="60" as="geometry" />
        </mxCell>
        <mxCell id="IZ6g-CRAh4mPd1Ij5pes-71" value="배송정보 발생" style="ellipse;whiteSpace=wrap;html=1;fontSize=17;" parent="1" vertex="1">
          <mxGeometry y="-780" width="120" height="40" as="geometry" />
        </mxCell>
        <mxCell id="IZ6g-CRAh4mPd1Ij5pes-72" value="회원등록" style="ellipse;whiteSpace=wrap;html=1;fontColor=#000000;fontStyle=0;movable=0;resizable=0;rotatable=0;deletable=0;editable=0;locked=1;connectable=0;" parent="1" vertex="1">
          <mxGeometry x="-360" y="-370" width="120" height="40" as="geometry" />
        </mxCell>
        <mxCell id="IZ6g-CRAh4mPd1Ij5pes-73" value="회원조회" style="ellipse;whiteSpace=wrap;html=1;fontColor=#000000;fontStyle=0;movable=1;resizable=1;rotatable=1;deletable=1;editable=1;locked=0;connectable=1;fontSize=17;" parent="1" vertex="1">
          <mxGeometry x="-240" y="-470" width="120" height="40" as="geometry" />
        </mxCell>
        <mxCell id="IZ6g-CRAh4mPd1Ij5pes-74" value="&lt;font color=&quot;#000000&quot; style=&quot;font-size: 17px;&quot;&gt;이용후기&lt;/font&gt;" style="ellipse;whiteSpace=wrap;html=1;fontColor=#FF0000;fontStyle=0;fontSize=17;" parent="1" vertex="1">
          <mxGeometry x="-480" y="-920" width="120" height="40" as="geometry" />
        </mxCell>
        <mxCell id="IZ6g-CRAh4mPd1Ij5pes-75" value="" style="endArrow=classic;html=1;rounded=0;entryX=0;entryY=0.5;entryDx=0;entryDy=0;exitX=1;exitY=0.5;exitDx=0;exitDy=0;dashed=1;fontSize=17;" parent="1" source="IZ6g-CRAh4mPd1Ij5pes-74" target="IZ6g-CRAh4mPd1Ij5pes-29" edge="1">
          <mxGeometry width="50" height="50" relative="1" as="geometry">
            <mxPoint x="-440" y="-620" as="sourcePoint" />
            <mxPoint x="-390" y="-670" as="targetPoint" />
          </mxGeometry>
        </mxCell>
      </root>
    </mxGraphModel>
  </diagram>
</mxfile>
